<svg xmlns="http://www.w3.org/2000/svg" xmlns:xlink="http://www.w3.org/1999/xlink" contentStyleType="text/css" data-diagram-type="SEQUENCE" height="875px" preserveAspectRatio="none" style="width:885px;height:875px;background:#FFFFFF;" version="1.1" viewBox="0 0 885 875" width="885px" zoomAndPan="magnify"><title>Weight Copying (tempo set to 100 blocks)</title><defs/><g><text fill="#000000" font-family="sans-serif" font-size="14" font-weight="bold" lengthAdjust="spacing" textLength="333.1357" x="272.0935" y="27.9951">Weight Copying (tempo set to 100 blocks)</text><g><title>Validator</title><rect fill="#FFFFFF" height="58.2656" style="stroke:#FFFFFF;stroke-width:1;" width="10" x="86.606" y="192.8594"/><line style="stroke:#181818;stroke-width:1;" x1="86.606" x2="86.606" y1="192.8594" y2="251.125"/><line style="stroke:#181818;stroke-width:1;" x1="96.606" x2="96.606" y1="192.8594" y2="251.125"/><line style="stroke:#181818;stroke-width:1;" x1="86.606" x2="96.606" y1="192.8594" y2="192.8594"/></g><g><title>Validator</title><rect fill="#FFFFFF" height="21.1328" style="stroke:#FFFFFF;stroke-width:1;" width="10" x="86.606" y="279.125"/><line style="stroke:#181818;stroke-width:1;" x1="86.606" x2="86.606" y1="279.125" y2="300.2578"/><line style="stroke:#181818;stroke-width:1;" x1="96.606" x2="96.606" y1="279.125" y2="300.2578"/><line style="stroke:#181818;stroke-width:1;" x1="86.606" x2="96.606" y1="300.2578" y2="300.2578"/></g><g><title>Validator</title><rect fill="#FFFFFF" height="59.2656" style="stroke:#181818;stroke-width:1;" width="10" x="86.606" y="726.1172"/></g><g><title>Current weights</title><rect fill="#FFFFFF" height="282.3281" style="stroke:#181818;stroke-width:1;" width="10" x="444.4565" y="329.3906"/></g><g><title>Validator</title><rect fill="#000000" fill-opacity="0.00000" height="132.5313" width="8" x="87.606" y="118.5938"/><line style="stroke:#181818;stroke-width:0.5;stroke-dasharray:5,5;" x1="91" x2="91" y1="118.5938" y2="251.125"/></g><line style="stroke:#181818;stroke-width:0.5;stroke-dasharray:1,4;" x1="91" x2="91" y1="251.125" y2="279.125"/><g><title>Validator</title><rect fill="#000000" fill-opacity="0.00000" height="515.2578" width="8" x="87.606" y="279.125"/><line style="stroke:#181818;stroke-width:0.5;stroke-dasharray:5,5;" x1="91" x2="91" y1="279.125" y2="794.3828"/></g><g><title>Subtensor</title><rect fill="#000000" fill-opacity="0.00000" height="132.5313" width="8" x="328.5542" y="118.5938"/><line style="stroke:#181818;stroke-width:0.5;stroke-dasharray:5,5;" x1="331.9355" x2="331.9355" y1="118.5938" y2="251.125"/></g><line style="stroke:#181818;stroke-width:0.5;stroke-dasharray:1,4;" x1="331.9355" x2="331.9355" y1="251.125" y2="279.125"/><g><title>Subtensor</title><rect fill="#000000" fill-opacity="0.00000" height="515.2578" width="8" x="328.5542" y="279.125"/><line style="stroke:#181818;stroke-width:0.5;stroke-dasharray:5,5;" x1="331.9355" x2="331.9355" y1="279.125" y2="794.3828"/></g><g><title>Current weights</title><rect fill="#000000" fill-opacity="0.00000" height="132.5313" width="8" x="445.4565" y="118.5938"/><line style="stroke:#181818;stroke-width:0.5;stroke-dasharray:5,5;" x1="449.4155" x2="449.4155" y1="118.5938" y2="251.125"/></g><line style="stroke:#181818;stroke-width:0.5;stroke-dasharray:1,4;" x1="449.4155" x2="449.4155" y1="251.125" y2="279.125"/><g><title>Current weights</title><rect fill="#000000" fill-opacity="0.00000" height="515.2578" width="8" x="445.4565" y="279.125"/><line style="stroke:#181818;stroke-width:0.5;stroke-dasharray:5,5;" x1="449.4155" x2="449.4155" y1="279.125" y2="794.3828"/></g><g><title>Yuma</title><rect fill="#000000" fill-opacity="0.00000" height="132.5313" width="8" x="646.1743" y="118.5938"/><line style="stroke:#181818;stroke-width:0.5;stroke-dasharray:5,5;" x1="649.3535" x2="649.3535" y1="118.5938" y2="251.125"/></g><line style="stroke:#181818;stroke-width:0.5;stroke-dasharray:1,4;" x1="649.3535" x2="649.3535" y1="251.125" y2="279.125"/><g><title>Yuma</title><rect fill="#000000" fill-opacity="0.00000" height="515.2578" width="8" x="646.1743" y="279.125"/><line style="stroke:#181818;stroke-width:0.5;stroke-dasharray:5,5;" x1="649.3535" x2="649.3535" y1="279.125" y2="794.3828"/></g><g><title>Weight copier</title><rect fill="#000000" fill-opacity="0.00000" height="132.5313" width="8" x="734.7217" y="118.5938"/><line style="stroke:#181818;stroke-width:0.5;stroke-dasharray:5,5;" x1="737.9951" x2="737.9951" y1="118.5938" y2="251.125"/></g><line style="stroke:#181818;stroke-width:0.5;stroke-dasharray:1,4;" x1="737.9951" x2="737.9951" y1="251.125" y2="279.125"/><g><title>Weight copier</title><rect fill="#000000" fill-opacity="0.00000" height="515.2578" width="8" x="734.7217" y="279.125"/><line style="stroke:#181818;stroke-width:0.5;stroke-dasharray:5,5;" x1="737.9951" x2="737.9951" y1="279.125" y2="794.3828"/></g><g class="participant participant-head" data-participant="validator"><text fill="#000000" font-family="sans-serif" font-size="14" lengthAdjust="spacing" textLength="63.2119" x="57" y="115.292">Validator</text><ellipse cx="91.606" cy="86.2969" fill="#E2E2F0" rx="12" ry="12" style="stroke:#181818;stroke-width:0.5;"/><polygon fill="#181818" points="87.606,74.2969,93.606,69.2969,91.606,74.2969,93.606,79.2969,87.606,74.2969" style="stroke:#181818;stroke-width:1;"/></g><g class="participant participant-tail" data-participant="validator"><text fill="#000000" font-family="sans-serif" font-size="14" lengthAdjust="spacing" textLength="63.2119" x="57" y="806.3779">Validator</text><ellipse cx="91.606" cy="825.6797" fill="#E2E2F0" rx="12" ry="12" style="stroke:#181818;stroke-width:0.5;"/><polygon fill="#181818" points="87.606,813.6797,93.606,808.6797,91.606,813.6797,93.606,818.6797,87.606,813.6797" style="stroke:#181818;stroke-width:1;"/></g><g class="participant participant-head" data-participant="subtensor"><rect fill="#E2E2F0" height="30.2969" rx="2.5" ry="2.5" style="stroke:#181818;stroke-width:0.5;" width="85.2373" x="289.9355" y="87.2969"/><text fill="#000000" font-family="sans-serif" font-size="14" lengthAdjust="spacing" textLength="71.2373" x="296.9355" y="107.292">Subtensor</text></g><g class="participant participant-tail" data-participant="subtensor"><rect fill="#E2E2F0" height="30.2969" rx="2.5" ry="2.5" style="stroke:#181818;stroke-width:0.5;" width="85.2373" x="289.9355" y="793.3828"/><text fill="#000000" font-family="sans-serif" font-size="14" lengthAdjust="spacing" textLength="71.2373" x="296.9355" y="813.3779">Subtensor</text></g><g class="participant participant-head" data-participant="current_weights"><text fill="#000000" font-family="sans-serif" font-size="14" lengthAdjust="spacing" textLength="112.082" x="390.4155" y="115.292">Current weights</text><path d="M431.4565,66.2969 C431.4565,56.2969 449.4565,56.2969 449.4565,56.2969 C449.4565,56.2969 467.4565,56.2969 467.4565,66.2969 L467.4565,92.2969 C467.4565,102.2969 449.4565,102.2969 449.4565,102.2969 C449.4565,102.2969 431.4565,102.2969 431.4565,92.2969 L431.4565,66.2969" fill="#E2E2F0" style="stroke:#181818;stroke-width:0.5;"/><path d="M431.4565,66.2969 C431.4565,76.2969 449.4565,76.2969 449.4565,76.2969 C449.4565,76.2969 467.4565,76.2969 467.4565,66.2969" fill="none" style="stroke:#181818;stroke-width:0.5;"/></g><g class="participant participant-tail" data-participant="current_weights"><text fill="#000000" font-family="sans-serif" font-size="14" lengthAdjust="spacing" textLength="112.082" x="390.4155" y="806.3779">Current weights</text><path d="M431.4565,819.6797 C431.4565,809.6797 449.4565,809.6797 449.4565,809.6797 C449.4565,809.6797 467.4565,809.6797 467.4565,819.6797 L467.4565,845.6797 C467.4565,855.6797 449.4565,855.6797 449.4565,855.6797 C449.4565,855.6797 431.4565,855.6797 431.4565,845.6797 L431.4565,819.6797" fill="#E2E2F0" style="stroke:#181818;stroke-width:0.5;"/><path d="M431.4565,819.6797 C431.4565,829.6797 449.4565,829.6797 449.4565,829.6797 C449.4565,829.6797 467.4565,829.6797 467.4565,819.6797" fill="none" style="stroke:#181818;stroke-width:0.5;"/></g><g class="participant participant-head" data-participant="yuma"><rect fill="#E2E2F0" height="30.2969" rx="2.5" ry="2.5" style="stroke:#181818;stroke-width:0.5;" width="53.6416" x="623.3535" y="87.2969"/><text fill="#000000" font-family="sans-serif" font-size="14" lengthAdjust="spacing" textLength="39.6416" x="630.3535" y="107.292">Yuma</text></g><g class="participant participant-tail" data-participant="yuma"><rect fill="#E2E2F0" height="30.2969" rx="2.5" ry="2.5" style="stroke:#181818;stroke-width:0.5;" width="53.6416" x="623.3535" y="793.3828"/><text fill="#000000" font-family="sans-serif" font-size="14" lengthAdjust="spacing" textLength="39.6416" x="630.3535" y="813.3779">Yuma</text></g><g class="participant participant-head" data-participant="WC"><text fill="#000000" font-family="sans-serif" font-size="14" lengthAdjust="spacing" textLength="97.4531" x="686.9951" y="115.292">Weight copier</text><ellipse cx="738.7217" cy="50.7969" fill="#E2E2F0" rx="8" ry="8" style="stroke:#181818;stroke-width:0.5;"/><path d="M738.7217,58.7969 L738.7217,85.7969 M725.7217,66.7969 L751.7217,66.7969 M738.7217,85.7969 L725.7217,100.7969 M738.7217,85.7969 L751.7217,100.7969" fill="none" style="stroke:#181818;stroke-width:0.5;"/></g><g class="participant participant-tail" data-participant="WC"><text fill="#000000" font-family="sans-serif" font-size="14" lengthAdjust="spacing" textLength="97.4531" x="686.9951" y="806.3779">Weight copier</text><ellipse cx="738.7217" cy="818.1797" fill="#E2E2F0" rx="8" ry="8" style="stroke:#181818;stroke-width:0.5;"/><path d="M738.7217,826.1797 L738.7217,853.1797 M725.7217,834.1797 L751.7217,834.1797 M738.7217,853.1797 L725.7217,868.1797 M738.7217,853.1797 L751.7217,868.1797" fill="none" style="stroke:#181818;stroke-width:0.5;"/></g><g><title>Validator</title><rect fill="#FFFFFF" height="58.2656" style="stroke:#FFFFFF;stroke-width:1;" width="10" x="86.606" y="192.8594"/><line style="stroke:#181818;stroke-width:1;" x1="86.606" x2="86.606" y1="192.8594" y2="251.125"/><line style="stroke:#181818;stroke-width:1;" x1="96.606" x2="96.606" y1="192.8594" y2="251.125"/><line style="stroke:#181818;stroke-width:1;" x1="86.606" x2="96.606" y1="192.8594" y2="192.8594"/></g><g><title>Validator</title><rect fill="#FFFFFF" height="21.1328" style="stroke:#FFFFFF;stroke-width:1;" width="10" x="86.606" y="279.125"/><line style="stroke:#181818;stroke-width:1;" x1="86.606" x2="86.606" y1="279.125" y2="300.2578"/><line style="stroke:#181818;stroke-width:1;" x1="96.606" x2="96.606" y1="279.125" y2="300.2578"/><line style="stroke:#181818;stroke-width:1;" x1="86.606" x2="96.606" y1="300.2578" y2="300.2578"/></g><g><title>Validator</title><rect fill="#FFFFFF" height="59.2656" style="stroke:#181818;stroke-width:1;" width="10" x="86.606" y="726.1172"/></g><g><title>Current weights</title><rect fill="#FFFFFF" height="282.3281" style="stroke:#181818;stroke-width:1;" width="10" x="444.4565" y="329.3906"/></g><rect fill="#EEEEEE" height="3" style="stroke:#EEEEEE;stroke-width:1;" width="878.3228" x="0" y="149.1602"/><line style="stroke:#000000;stroke-width:1;" x1="0" x2="878.3228" y1="149.1602" y2="149.1602"/><line style="stroke:#000000;stroke-width:1;" x1="0" x2="878.3228" y1="152.1602" y2="152.1602"/><rect fill="#EEEEEE" height="23.1328" style="stroke:#000000;stroke-width:2;" width="130.4858" x="373.9185" y="138.5938"/><text fill="#000000" font-family="sans-serif" font-size="13" font-weight="bold" lengthAdjust="spacing" textLength="111.96" x="379.9185" y="154.6606">Tempo 10 start</text><g class="message" data-participant-1="subtensor" data-participant-2="subtensor"><polygon fill="#181818" points="320.5542,188.8594,330.5542,192.8594,320.5542,196.8594,324.5542,192.8594" style="stroke:#181818;stroke-width:1;"/><line style="stroke:#181818;stroke-width:1;" x1="123.6968" x2="326.5542" y1="192.8594" y2="192.8594"/><text fill="#000000" font-family="sans-serif" font-size="13" font-weight="bold" lengthAdjust="spacing" textLength="91.6348" x="130.6968" y="187.7935">[block 1000]</text><text fill="#000000" font-family="sans-serif" font-size="13" lengthAdjust="spacing" textLength="89.2227" x="226.3315" y="187.7935">tempo begins</text></g><path d="M5,205.8594 L5,245.8594 L82,245.8594 L82,215.8594 L72,205.8594 L5,205.8594" fill="#FEFFDD" style="stroke:#181818;stroke-width:0.5;"/><path d="M72,205.8594 L72,215.8594 L82,215.8594 L72,205.8594" fill="#FEFFDD" style="stroke:#181818;stroke-width:0.5;"/><text fill="#000000" font-family="sans-serif" font-size="13" lengthAdjust="spacing" textLength="56.5703" x="11" y="222.9263">evaluate</text><text fill="#000000" font-family="sans-serif" font-size="13" lengthAdjust="spacing" textLength="44.6304" x="11" y="238.0591">miners</text><g class="message" data-participant-1="validator" data-participant-2="subtensor"><polygon fill="#181818" points="320.5542,296.2578,330.5542,300.2578,320.5542,304.2578,324.5542,300.2578" style="stroke:#181818;stroke-width:1;"/><line style="stroke:#181818;stroke-width:1;" x1="91.606" x2="326.5542" y1="300.2578" y2="300.2578"/><text fill="#000000" font-family="sans-serif" font-size="13" font-weight="bold" lengthAdjust="spacing" textLength="133.2119" x="103.606" y="295.1919">[block 1090-1099]</text><text fill="#000000" font-family="sans-serif" font-size="13" lengthAdjust="spacing" textLength="74.604" x="240.9502" y="295.1919">set weights</text></g><g class="message" data-participant-1="subtensor" data-participant-2="current_weights"><polygon fill="#181818" points="432.4565,325.3906,442.4565,329.3906,432.4565,333.3906,436.4565,329.3906" style="stroke:#181818;stroke-width:1;"/><line style="stroke:#181818;stroke-width:1;" x1="332.5542" x2="438.4565" y1="329.3906" y2="329.3906"/><text fill="#000000" font-family="sans-serif" font-size="13" lengthAdjust="spacing" textLength="87.9023" x="339.5542" y="324.3247">store weights</text></g><path d="M316,342.3906 L316,382.3906 L439,382.3906 L439,352.3906 L429,342.3906 L316,342.3906" fill="#FEFFDD" style="stroke:#181818;stroke-width:0.5;"/><path d="M429,342.3906 L429,352.3906 L439,352.3906 L429,342.3906" fill="#FEFFDD" style="stroke:#181818;stroke-width:0.5;"/><text fill="#000000" font-family="sans-serif" font-size="13" lengthAdjust="spacing" textLength="102.1465" x="322" y="359.4575">weights waiting</text><text fill="#000000" font-family="sans-serif" font-size="13" lengthAdjust="spacing" textLength="61.5977" x="322" y="374.5903">for epoch</text><g class="message" data-participant-1="current_weights" data-participant-2="WC"><polygon fill="#FF0000" points="726.7217,404.7891,736.7217,408.7891,726.7217,412.7891,730.7217,408.7891" style="stroke:#FF0000;stroke-width:1;"/><line style="stroke:#FF0000;stroke-width:1;" x1="454.4565" x2="732.7217" y1="408.7891" y2="408.7891"/><text fill="#000000" font-family="sans-serif" font-size="13" lengthAdjust="spacing" textLength="76.083" x="645.6387" y="403.7231">get weights</text></g><g class="message" data-participant-1="WC" data-participant-2="WC"><line style="stroke:#FF0000;stroke-width:1;" x1="738.7217" x2="780.7217" y1="468.1875" y2="468.1875"/><line style="stroke:#FF0000;stroke-width:1;" x1="780.7217" x2="780.7217" y1="468.1875" y2="481.1875"/><line style="stroke:#FF0000;stroke-width:1;" x1="739.7217" x2="780.7217" y1="481.1875" y2="481.1875"/><polygon fill="#FF0000" points="749.7217,477.1875,739.7217,481.1875,749.7217,485.1875,745.7217,481.1875" style="stroke:#FF0000;stroke-width:1;"/><text fill="#000000" font-family="sans-serif" font-size="13" lengthAdjust="spacing" textLength="58.7856" x="812.5371" y="432.856">calculate</text><text fill="#000000" font-family="sans-serif" font-size="13" lengthAdjust="spacing" textLength="125.6011" x="745.7217" y="447.9888">the stake-weighted</text><text fill="#000000" font-family="sans-serif" font-size="13" lengthAdjust="spacing" textLength="124.6172" x="746.7056" y="463.1216">average of weights</text></g><g class="message" data-participant-1="WC" data-participant-2="subtensor"><polygon fill="#FF0000" points="343.5542,506.3203,333.5542,510.3203,343.5542,514.3203,339.5542,510.3203" style="stroke:#FF0000;stroke-width:1;"/><line style="stroke:#FF0000;stroke-width:1;" x1="337.5542" x2="737.7217" y1="510.3203" y2="510.3203"/><text fill="#000000" font-family="sans-serif" font-size="13" font-weight="bold" lengthAdjust="spacing" textLength="133.2119" x="519.7734" y="505.2544">[block 1090-1099]</text><text fill="#000000" font-family="sans-serif" font-size="13" lengthAdjust="spacing" textLength="74.604" x="657.1177" y="505.2544">set weights</text></g><g class="message" data-participant-1="subtensor" data-participant-2="current_weights"><polygon fill="#FF0000" points="432.4565,535.4531,442.4565,539.4531,432.4565,543.4531,436.4565,539.4531" style="stroke:#FF0000;stroke-width:1;"/><line style="stroke:#FF0000;stroke-width:1;" x1="332.5542" x2="438.4565" y1="539.4531" y2="539.4531"/><text fill="#000000" font-family="sans-serif" font-size="13" lengthAdjust="spacing" textLength="87.9023" x="339.5542" y="534.3872">store weights</text></g><rect fill="#EEEEEE" height="3" style="stroke:#EEEEEE;stroke-width:1;" width="878.3228" x="0" y="568.0195"/><line style="stroke:#000000;stroke-width:1;" x1="0" x2="878.3228" y1="568.0195" y2="568.0195"/><line style="stroke:#000000;stroke-width:1;" x1="0" x2="878.3228" y1="571.0195" y2="571.0195"/><rect fill="#EEEEEE" height="23.1328" style="stroke:#000000;stroke-width:2;" width="139.1504" x="369.5862" y="557.4531"/><text fill="#000000" font-family="sans-serif" font-size="13" font-weight="bold" lengthAdjust="spacing" textLength="120.6245" x="375.5862" y="573.52">Tempo 10 epoch</text><g class="message" data-participant-1="current_weights" data-participant-2="yuma"><polygon fill="#181818" points="638.1743,607.7188,648.1743,611.7188,638.1743,615.7188,642.1743,611.7188" style="stroke:#181818;stroke-width:1;"/><line style="stroke:#181818;stroke-width:1;" x1="449.4565" x2="644.1743" y1="611.7188" y2="611.7188"/><text fill="#000000" font-family="sans-serif" font-size="13" font-weight="bold" lengthAdjust="spacing" textLength="91.6348" x="461.4565" y="606.6528">[block 1100]</text><text fill="#000000" font-family="sans-serif" font-size="13" lengthAdjust="spacing" textLength="76.083" x="557.0913" y="606.6528">get weights</text></g><g class="message" data-participant-1="yuma" data-participant-2="yuma"><line style="stroke:#181818;stroke-width:1;" x1="650.1743" x2="692.1743" y1="640.8516" y2="640.8516"/><line style="stroke:#181818;stroke-width:1;" x1="692.1743" x2="692.1743" y1="640.8516" y2="653.8516"/><line style="stroke:#181818;stroke-width:1;" x1="651.1743" x2="692.1743" y1="653.8516" y2="653.8516"/><polygon fill="#181818" points="661.1743,649.8516,651.1743,653.8516,661.1743,657.8516,657.1743,653.8516" style="stroke:#181818;stroke-width:1;"/><text fill="#000000" font-family="sans-serif" font-size="13" lengthAdjust="spacing" textLength="65.5459" x="657.1743" y="635.7856">run epoch</text></g><rect fill="#EEEEEE" height="3" style="stroke:#EEEEEE;stroke-width:1;" width="878.3228" x="0" y="682.418"/><line style="stroke:#000000;stroke-width:1;" x1="0" x2="878.3228" y1="682.418" y2="682.418"/><line style="stroke:#000000;stroke-width:1;" x1="0" x2="878.3228" y1="685.418" y2="685.418"/><rect fill="#EEEEEE" height="23.1328" style="stroke:#000000;stroke-width:2;" width="130.4858" x="373.9185" y="671.8516"/><text fill="#000000" font-family="sans-serif" font-size="13" font-weight="bold" lengthAdjust="spacing" textLength="111.96" x="379.9185" y="687.9185">Tempo 11 start</text><g class="message" data-participant-1="subtensor" data-participant-2="subtensor"><polygon fill="#181818" points="320.5542,722.1172,330.5542,726.1172,320.5542,730.1172,324.5542,726.1172" style="stroke:#181818;stroke-width:1;"/><line style="stroke:#181818;stroke-width:1;" x1="123.6968" x2="326.5542" y1="726.1172" y2="726.1172"/><text fill="#000000" font-family="sans-serif" font-size="13" font-weight="bold" lengthAdjust="spacing" textLength="91.6348" x="130.6968" y="721.0513">[block 1100]</text><text fill="#000000" font-family="sans-serif" font-size="13" lengthAdjust="spacing" textLength="89.2227" x="226.3315" y="721.0513">tempo begins</text></g><path d="M5,739.1172 L5,779.1172 L82,779.1172 L82,749.1172 L72,739.1172 L5,739.1172" fill="#FEFFDD" style="stroke:#181818;stroke-width:0.5;"/><path d="M72,739.1172 L72,749.1172 L82,749.1172 L72,739.1172" fill="#FEFFDD" style="stroke:#181818;stroke-width:0.5;"/><text fill="#000000" font-family="sans-serif" font-size="13" lengthAdjust="spacing" textLength="56.5703" x="11" y="756.1841">evaluate</text><text fill="#000000" font-family="sans-serif" font-size="13" lengthAdjust="spacing" textLength="44.6304" x="11" y="771.3169">miners</text><!--SRC=[jLDDZzem4BtFhnY5Itk09eSU5YsfAiuzjIgg5bGvPWWMYPtQOrRxxsi7GaY8jEgXbyGVpszctfkHHhCr5VuKbTeBDXQ5mtEtWKPOLb8rGZD-zmMJTXU8wpOGWA8GZZ1PUsif05z9bKTsISJ9ozdlwzc0y9UlHSIyXJy86OCdcnQ7qZIARCkmMGEmuehmUhSspPlI9NvWgXk3ZXZPO9QcM5H6djn707TIEaGITRZzuqbB-aREYPA-LghKQ2CFm6g5FrgAB4N78J5ShG24PwDzNP2Dd2ccc3mN-KlBZRFPBe4lyxolVucND0egbNQW3HDMT60qXrx79L9OUy6qrRNIP5siLvt3mPtOez2V9qBV8HoR1c2nM03SA72OMVyuIv_IUVWyxPu_5NchMUV8dYPIkP54nf67onZQqerWdDEDRkpzG9i7qki2NuNYOEzM7q9qQemy0ep0E7-PMThlyj0SIoplYjciXtTILD9NhUvyfEZoYUONCEstMfp9Xgw8-Kmn_AkKTwfr5EzeD-Z1jjY77imcU_11aRmTew4QTzQElNXmBRxkMQpNdVPzXjdqb5XolgR_DHL_0G00]--></g></svg>